<?xml version="1.0" standalone="no"?>
<!DOCTYPE svg PUBLIC "-//W3C//DTD SVG 20010904//EN"
 "http://www.w3.org/TR/2001/REC-SVG-20010904/DTD/svg10.dtd">
<svg version="1.0" xmlns="http://www.w3.org/2000/svg"
 width="800.000000pt" height="800.000000pt" viewBox="0 0 800.000000 800.000000"
 preserveAspectRatio="xMidYMid meet">
<metadata>
Created by potrace 1.16, written by Peter Selinger 2001-2019
</metadata>
<g transform="translate(0.000000,800.000000) scale(0.100000,-0.100000)"
fill="#000000" stroke="none">
<path d="M3404 6620 c-26 -10 -40 -30 -22 -30 7 0 -5 -9 -26 -20 -22 -10 -43
-17 -48 -14 -8 5 -63 -16 -128 -49 -14 -7 -34 -29 -44 -48 -11 -20 -35 -44
-55 -55 -24 -13 -38 -30 -45 -52 -5 -19 -20 -41 -34 -50 -37 -24 -52 -71 -52
-164 1 -88 9 -135 35 -210 16 -44 16 -48 0 -64 -9 -9 -69 -34 -133 -56 -643
-215 -1147 -751 -1321 -1408 -43 -161 -61 -281 -68 -455 -10 -262 23 -488 108
-735 28 -80 54 -161 58 -180 10 -49 83 -186 157 -297 226 -337 542 -601 905
-756 778 -332 1689 -157 2265 435 351 360 553 793 595 1276 75 851 -383 1656
-1153 2027 -59 28 -146 65 -193 81 -64 22 -87 34 -91 50 -5 17 21 126 41 177
5 13 3 16 -8 11 -20 -7 -32 13 -17 31 16 20 30 19 30 -1 0 -14 2 -14 16 -3 13
10 15 24 11 61 -5 41 -4 48 12 48 14 0 17 8 15 43 -1 23 -2 46 -3 50 -1 5 -10
6 -21 2 -10 -3 -28 -2 -38 4 -13 7 -22 7 -30 -1 -9 -9 -12 -9 -12 1 0 7 6 19
14 27 13 12 12 18 -1 44 -14 30 -59 67 -68 58 -3 -2 5 -15 16 -27 32 -34 9
-49 -30 -20 -28 20 -45 49 -21 34 6 -3 10 -1 10 4 0 6 -10 11 -22 11 -35 0
-87 36 -93 65 -3 14 -7 37 -10 51 -9 43 -98 65 -158 39 -10 -4 -37 0 -65 10
-26 9 -57 16 -69 16 -12 0 -43 10 -69 24 -48 25 -101 31 -140 15z m261 -430
c5 -8 11 -7 21 1 11 9 17 9 29 -1 8 -6 23 -9 35 -5 12 4 30 -1 48 -13 15 -11
36 -22 47 -26 36 -11 102 -88 118 -138 9 -27 13 -63 10 -81 -4 -28 0 -39 22
-61 l28 -28 -7 -149 c-4 -82 -5 -149 -2 -149 3 0 13 14 21 30 14 26 67 70 86
70 22 0 40 -124 20 -145 -4 -6 -14 -32 -20 -60 -7 -27 -16 -52 -19 -55 -4 -3
-20 -25 -37 -49 -19 -29 -44 -50 -72 -62 -37 -16 -46 -27 -73 -85 -16 -37 -45
-86 -64 -108 -18 -23 -36 -58 -40 -80 -4 -21 -11 -46 -16 -55 -27 -49 -41
-129 -44 -242 -2 -87 -8 -136 -20 -164 -25 -59 -92 -124 -163 -156 -73 -34
-99 -37 -88 -11 4 9 11 31 15 49 9 37 4 42 -61 76 -57 29 -223 160 -247 195
-19 27 -32 152 -16 152 14 0 100 -54 145 -91 25 -21 58 -43 73 -49 32 -12 113
-14 119 -2 8 12 -45 68 -82 87 -29 15 -32 19 -18 27 10 5 22 6 27 3 6 -3 14 5
20 19 6 17 17 26 31 26 27 0 179 67 199 88 13 13 13 14 -5 7 -55 -20 -89 -25
-157 -23 -112 5 -154 39 -217 175 -3 7 -28 45 -55 84 -46 65 -50 77 -51 133
-2 51 -7 69 -33 107 -35 51 -38 72 -20 130 15 53 35 68 98 73 30 2 67 7 83 11
16 4 27 3 27 -3 0 -14 62 -22 77 -10 7 6 22 8 33 5 53 -14 45 90 -12 151 -18
20 -37 40 -43 44 -15 12 -84 30 -135 35 -54 6 -58 9 -38 29 14 14 17 14 30 0
21 -20 28 -11 28 37 0 39 6 63 37 154 12 35 21 44 56 57 23 9 60 17 82 18 22
2 45 8 50 15 16 19 130 29 140 13z"/>
<path d="M3668 5804 c0 -5 -1 -39 -2 -76 -1 -50 3 -68 12 -68 7 0 11 -4 7 -9
-11 -18 35 -23 52 -6 17 17 63 17 120 0 16 -5 25 -3 29 9 10 27 -11 41 -91 61
-104 26 -92 41 30 37 76 -2 96 0 93 10 -3 7 -16 13 -29 13 -13 0 -29 6 -34 13
-12 15 -184 30 -187 16z"/>
<path d="M3411 5566 c-7 -8 -14 -23 -16 -35 -2 -11 -18 -35 -34 -53 -17 -18
-31 -43 -31 -55 0 -15 -9 -24 -33 -32 -42 -14 -69 -46 -71 -84 -1 -27 3 -32
35 -40 30 -7 40 -16 58 -56 20 -44 25 -49 63 -55 23 -4 47 -11 53 -15 16 -13
85 -30 85 -21 0 14 -27 30 -43 24 -8 -3 -18 0 -22 5 -3 6 -11 9 -16 5 -6 -3
-9 12 -8 38 2 63 1 68 -18 69 -14 0 -12 3 5 10 13 5 41 7 63 6 47 -4 52 9 7
21 -47 12 -44 38 3 34 46 -3 71 21 40 38 -12 6 -21 17 -21 24 0 7 -9 21 -21
32 -18 16 -20 28 -17 77 4 55 3 60 -19 68 -30 11 -28 12 -42 -5z"/>
</g>
</svg>
